<svg xmlns="http://www.w3.org/2000/svg" xmlns:xlink="http://www.w3.org/1999/xlink" viewBox="0 0 50 50" version="1.1">
<g id="surface1">
<path style=" " d="M 16.5 0 C 13.46875 0 11 2.46875 11 5.5 C 11 8.53125 13.46875 11 16.5 11 C 19.53125 11 22 8.53125 22 5.5 C 22 2.46875 19.53125 0 16.5 0 Z M 32.988281 0 C 32.738281 0 32.5 0.0234375 32.28125 0.0703125 C 29.839844 0.421875 28 2.542969 28.003906 4.898438 L 27.003906 14.066406 C 26.960938 14.523438 27.230469 14.953125 27.664063 15.109375 C 27.765625 15.144531 30.191406 16 33 16 C 35.839844 16 38.292969 14.964844 38.394531 14.921875 C 38.796875 14.746094 39.042969 14.335938 39 13.902344 L 38 4.945313 C 37.972656 2.511719 36.144531 0.421875 33.765625 0.078125 C 33.5 0.0234375 33.238281 0 32.988281 0 Z M 11.464844 13 L 11.449219 13.003906 C 8.4375 13.03125 6 15.484375 6 18.5 L 6 33 C 6 34.105469 6.898438 35 8 35 C 9.101563 35 10 34.105469 10 33 L 10 21 C 10 20.730469 10.230469 20.5 10.5 20.5 C 10.769531 20.5 11 20.730469 11 21 L 11 47.300781 C 11 48.863281 11.835938 50 13.402344 50 C 14.882813 50 16 48.839844 16 47.300781 L 16 33.699219 C 16 33.429688 16.214844 33.214844 16.484375 33.203125 C 16.75 33.214844 16.964844 33.429688 16.964844 33.699219 L 16.964844 47.300781 C 16.964844 48.839844 18.082031 50 19.5625 50 C 19.777344 50 19.976563 49.972656 20.160156 49.933594 C 20.050781 49.601563 19.988281 49.25 20 48.894531 C 20.042969 47.726563 20.382813 41.085938 22 34.863281 L 22 28.730469 L 27.28125 21.109375 C 27.347656 21.078125 27.421875 21.046875 27.5 21.046875 C 27.777344 21.046875 28 21.269531 28 21.546875 C 28 21.570313 28.300781 22.902344 28.574219 24.105469 C 28.703125 24.042969 28.84375 24 29 24 C 30.398438 24 31.695313 24.898438 32.484375 25.589844 C 33.253906 24.894531 34.535156 24 36 24 C 36.15625 24 36.296875 24.042969 36.425781 24.105469 C 36.726563 22.914063 37.0625 21.582031 37.0625 21.5625 C 37.0625 21.285156 37.285156 21.0625 37.5625 21.0625 C 37.753906 21.0625 37.921875 21.175781 38 21.339844 L 41.507813 31.203125 C 41.808594 31.800781 42.109375 32.402344 43.207031 32.402344 C 45.109375 32.398438 45.253906 30.898438 44.753906 29.5 C 44.753906 29.398438 40.753906 17 40.753906 17 C 40.648438 16.609375 40.503906 16.238281 40.34375 15.878906 C 40.039063 16.253906 39.648438 16.558594 39.183594 16.761719 C 38.882813 16.886719 36.179688 18 33 18 C 29.925781 18 27.285156 17.097656 26.988281 16.992188 C 26.402344 16.78125 25.925781 16.402344 25.578125 15.921875 L 17.378906 27.5 C 17.070313 27.96875 16.960938 28.507813 17.027344 29.019531 C 17.015625 29.015625 17.007813 29.007813 17 29 C 14.820313 26.925781 17.40625 24 17.40625 24 L 23.949219 14.765625 L 24.53125 13.941406 C 23.667969 13.359375 22.632813 13.011719 21.515625 13 C 21.511719 13 21.503906 13 21.5 13 Z M 36.035156 25.996094 C 36.023438 25.996094 36.011719 26 36 26 C 34.878906 26 33.648438 27.183594 33.269531 27.640625 C 33.085938 27.863281 32.808594 27.996094 32.515625 28 L 32.5 28 C 32.214844 28 31.9375 27.875 31.75 27.660156 C 31.367188 27.230469 30.046875 26 29 26 C 28.996094 26.003906 28.738281 26.121094 28.5625 26.25 C 22.996094 30.523438 22.070313 46.886719 22 48.964844 C 21.992188 49.234375 22.089844 49.5 22.28125 49.691406 C 22.46875 49.890625 22.730469 50 23 50 L 42 50 C 42.269531 50 42.53125 49.890625 42.71875 49.695313 C 42.90625 49.5 43.007813 49.238281 43 48.96875 C 42.929688 46.882813 41.890625 30.394531 36.324219 26.121094 C 36.238281 26.058594 36.136719 26.023438 36.035156 25.996094 Z "></path>
</g>
</svg>