<?xml version="1.0" standalone="no"?>
<!DOCTYPE svg PUBLIC "-//W3C//DTD SVG 20010904//EN"
 "http://www.w3.org/TR/2001/REC-SVG-20010904/DTD/svg10.dtd">
<svg version="1.0" xmlns="http://www.w3.org/2000/svg"
 width="600.000000pt" height="600.000000pt" viewBox="0 0 600.000000 600.000000"
 preserveAspectRatio="xMidYMid meet">
<metadata>
Created by potrace 1.11, written by Peter Selinger 2001-2013
</metadata>
<g transform="translate(0.000000,600.000000) scale(0.100000,-0.100000)"
fill="#000000" stroke="none">
<path d="M1467 5774 c-2 -2 -26 -7 -53 -10 -41 -4 -109 -18 -237 -49 -10 -2
-46 -14 -80 -26 -518 -181 -905 -604 -1045 -1139 -18 -70 -24 -99 -40 -210 -9
-60 -8 -336 0 -430 9 -91 33 -233 54 -315 9 -33 17 -67 19 -75 34 -151 163
-427 290 -620 100 -151 192 -268 327 -415 195 -210 340 -346 832 -779 401
-353 609 -551 858 -816 179 -191 279 -314 525 -647 23 -31 27 -33 86 -33 l62
1 62 93 c82 122 248 344 308 410 6 6 23 27 39 46 187 230 581 615 1126 1099
152 135 163 145 229 206 226 206 433 414 586 590 128 148 298 407 378 576 89
188 163 425 182 584 4 33 9 74 12 90 13 89 9 377 -7 485 -87 583 -482 1073
-1038 1284 -51 20 -103 38 -115 40 -12 2 -40 9 -62 15 -126 34 -232 46 -405
46 -74 0 -157 -3 -185 -8 -27 -4 -64 -9 -81 -11 -167 -23 -393 -107 -564 -210
-169 -102 -364 -280 -470 -428 -30 -43 -57 -77 -60 -77 -3 0 -30 34 -60 76
-59 82 -204 234 -285 300 -57 45 -153 112 -205 140 -19 11 -55 31 -80 45 -82
45 -330 137 -330 122 0 -3 -9 0 -19 6 -11 5 -37 12 -58 15 -37 5 -66 11 -108
22 -23 6 -383 12 -388 7z"/>
</g>
</svg>
